<svg xmlns="http://www.w3.org/2000/svg" width="140" height="75" viewBox="0 0 831 410" fill="none">
        
        <rect x="56.6328" y="64.1523" width="110.809" height="123.887" rx="55.4043" fill="#ffffff"/>
<path d="M75.068 234.395C84.096 234.395 91.9853 236.184 98.736 239.763C105.487 243.342 110.692 248.384 114.352 254.891C118.093 261.316 119.964 268.758 119.964 277.217C119.964 285.594 118.093 293.036 114.352 299.543C110.692 306.05 105.446 311.092 98.614 314.671C91.8633 318.25 84.0146 320.039 75.068 320.039H42.982V234.395H75.068ZM73.726 301.983C81.6153 301.983 87.756 299.828 92.148 295.517C96.54 291.206 98.736 285.106 98.736 277.217C98.736 269.328 96.54 263.187 92.148 258.795C87.756 254.403 81.6153 252.207 73.726 252.207H63.844V301.983H73.726ZM205.799 234.395V320.039H184.937V284.781H152.485V320.039H131.623V234.395H152.485V267.945H184.937V234.395H205.799ZM274.173 304.911H242.209L237.085 320.039H215.247L246.235 234.395H270.391L301.379 320.039H279.297L274.173 304.911ZM268.805 288.807L258.191 257.453L247.699 288.807H268.805ZM354.486 320.039L336.674 287.709H331.672V320.039H310.81V234.395H345.824C352.575 234.395 358.309 235.574 363.026 237.933C367.825 240.292 371.403 243.545 373.762 247.693C376.121 251.76 377.3 256.314 377.3 261.357C377.3 267.05 375.673 272.134 372.42 276.607C369.248 281.08 364.531 284.252 358.268 286.123L378.032 320.039H354.486ZM331.672 272.947H344.604C348.427 272.947 351.273 272.012 353.144 270.141C355.096 268.27 356.072 265.627 356.072 262.211C356.072 258.958 355.096 256.396 353.144 254.525C351.273 252.654 348.427 251.719 344.604 251.719H331.672V272.947ZM487.386 234.395V320.039H466.524V268.677L447.37 320.039H430.534L411.258 268.555V320.039H390.396V234.395H415.04L439.074 293.687L462.864 234.395H487.386ZM523.25 234.395V320.039H502.388V234.395H523.25Z" fill="#ffffff"/>
<path d="M103.209 49.7852C120.248 49.7852 135.137 53.1622 147.878 59.9163C160.619 66.6704 170.443 76.1876 177.351 88.4677C184.412 100.594 187.942 114.64 187.942 130.604C187.942 146.415 184.412 160.46 177.351 172.741C170.443 185.021 160.542 194.538 147.648 201.292C134.907 208.046 120.094 211.423 103.209 211.423H42.6523V49.7852H103.209ZM100.676 177.346C115.566 177.346 127.155 173.278 135.444 165.142C143.734 157.007 147.878 145.494 147.878 130.604C147.878 115.714 143.734 104.125 135.444 95.8358C127.155 87.5467 115.566 83.4022 100.676 83.4022H82.0257V177.346H100.676Z" fill="#ffffff"/>
<path d="M65.277 338.324V364.039H61.059V346.427L53.215 364.039H50.292L42.411 346.427V364.039H38.193V338.324H42.744L51.772 358.489L60.763 338.324H65.277ZM69.4149 353.753C69.4149 351.706 69.8342 349.893 70.6729 348.314C71.5362 346.735 72.6956 345.514 74.1509 344.651C75.6309 343.763 77.2589 343.319 79.0349 343.319C80.6382 343.319 82.0319 343.64 83.2159 344.281C84.4246 344.898 85.3866 345.675 86.1019 346.612V343.652H90.3569V364.039H86.1019V361.005C85.3866 361.967 84.4122 362.769 83.1789 363.41C81.9456 364.051 80.5396 364.372 78.9609 364.372C77.2096 364.372 75.6062 363.928 74.1509 363.04C72.6956 362.127 71.5362 360.869 70.6729 359.266C69.8342 357.638 69.4149 355.8 69.4149 353.753ZM86.1019 353.827C86.1019 352.421 85.8059 351.2 85.2139 350.164C84.6466 349.128 83.8942 348.339 82.9569 347.796C82.0196 347.253 81.0082 346.982 79.9229 346.982C78.8376 346.982 77.8262 347.253 76.8889 347.796C75.9516 348.314 75.1869 349.091 74.5949 350.127C74.0276 351.138 73.7439 352.347 73.7439 353.753C73.7439 355.159 74.0276 356.392 74.5949 357.453C75.1869 358.514 75.9516 359.328 76.8889 359.895C77.8509 360.438 78.8622 360.709 79.9229 360.709C81.0082 360.709 82.0196 360.438 82.9569 359.895C83.8942 359.352 84.6466 358.563 85.2139 357.527C85.8059 356.466 86.1019 355.233 86.1019 353.827ZM106.183 343.319C107.786 343.319 109.217 343.652 110.475 344.318C111.758 344.984 112.757 345.971 113.472 347.278C114.187 348.585 114.545 350.164 114.545 352.014V364.039H110.364V352.643C110.364 350.818 109.908 349.424 108.995 348.462C108.082 347.475 106.837 346.982 105.258 346.982C103.679 346.982 102.421 347.475 101.484 348.462C100.571 349.424 100.115 350.818 100.115 352.643V364.039H95.8971V343.652H100.115V345.983C100.806 345.144 101.681 344.491 102.742 344.022C103.827 343.553 104.974 343.319 106.183 343.319ZM138.388 343.652V364.039H134.17V361.634C133.504 362.473 132.629 363.139 131.543 363.632C130.483 364.101 129.348 364.335 128.139 364.335C126.536 364.335 125.093 364.002 123.81 363.336C122.552 362.67 121.553 361.683 120.813 360.376C120.098 359.069 119.74 357.49 119.74 355.64V343.652H123.921V355.011C123.921 356.836 124.378 358.242 125.29 359.229C126.203 360.191 127.449 360.672 129.027 360.672C130.606 360.672 131.852 360.191 132.764 359.229C133.702 358.242 134.17 356.836 134.17 355.011V343.652H138.388ZM152.501 347.093H148.727V364.039H144.472V347.093H142.067V343.652H144.472V342.209C144.472 339.866 145.088 338.164 146.322 337.103C147.58 336.018 149.541 335.475 152.205 335.475V338.99C150.922 338.99 150.022 339.237 149.504 339.73C148.986 340.199 148.727 341.025 148.727 342.209V343.652H152.501V347.093ZM154.833 353.753C154.833 351.706 155.252 349.893 156.091 348.314C156.954 346.735 158.114 345.514 159.569 344.651C161.049 343.763 162.677 343.319 164.453 343.319C166.056 343.319 167.45 343.64 168.634 344.281C169.843 344.898 170.805 345.675 171.52 346.612V343.652H175.775V364.039H171.52V361.005C170.805 361.967 169.83 362.769 168.597 363.41C167.364 364.051 165.958 364.372 164.379 364.372C162.628 364.372 161.024 363.928 159.569 363.04C158.114 362.127 156.954 360.869 156.091 359.266C155.252 357.638 154.833 355.8 154.833 353.753ZM171.52 353.827C171.52 352.421 171.224 351.2 170.632 350.164C170.065 349.128 169.312 348.339 168.375 347.796C167.438 347.253 166.426 346.982 165.341 346.982C164.256 346.982 163.244 347.253 162.307 347.796C161.37 348.314 160.605 349.091 160.013 350.127C159.446 351.138 159.162 352.347 159.162 353.753C159.162 355.159 159.446 356.392 160.013 357.453C160.605 358.514 161.37 359.328 162.307 359.895C163.269 360.438 164.28 360.709 165.341 360.709C166.426 360.709 167.438 360.438 168.375 359.895C169.312 359.352 170.065 358.563 170.632 357.527C171.224 356.466 171.52 355.233 171.52 353.827ZM179.909 353.827C179.909 351.73 180.328 349.893 181.167 348.314C182.03 346.711 183.214 345.477 184.719 344.614C186.224 343.751 187.95 343.319 189.899 343.319C192.366 343.319 194.401 343.911 196.004 345.095C197.632 346.254 198.73 347.919 199.297 350.09H194.746C194.376 349.079 193.784 348.289 192.97 347.722C192.156 347.155 191.132 346.871 189.899 346.871C188.172 346.871 186.791 347.488 185.755 348.721C184.744 349.93 184.238 351.632 184.238 353.827C184.238 356.022 184.744 357.737 185.755 358.97C186.791 360.203 188.172 360.82 189.899 360.82C192.341 360.82 193.957 359.747 194.746 357.601H199.297C198.705 359.673 197.595 361.326 195.967 362.559C194.339 363.768 192.316 364.372 189.899 364.372C187.95 364.372 186.224 363.94 184.719 363.077C183.214 362.189 182.03 360.956 181.167 359.377C180.328 357.774 179.909 355.924 179.909 353.827ZM208.422 347.093V358.378C208.422 359.143 208.594 359.698 208.94 360.043C209.31 360.364 209.926 360.524 210.79 360.524H213.38V364.039H210.05C208.15 364.039 206.695 363.595 205.684 362.707C204.672 361.819 204.167 360.376 204.167 358.378V347.093H201.762V343.652H204.167V338.583H208.422V343.652H213.38V347.093H208.422ZM235.73 343.652V364.039H231.512V361.634C230.846 362.473 229.971 363.139 228.885 363.632C227.825 364.101 226.69 364.335 225.481 364.335C223.878 364.335 222.435 364.002 221.152 363.336C219.894 362.67 218.895 361.683 218.155 360.376C217.44 359.069 217.082 357.49 217.082 355.64V343.652H221.263V355.011C221.263 356.836 221.72 358.242 222.632 359.229C223.545 360.191 224.791 360.672 226.369 360.672C227.948 360.672 229.194 360.191 230.106 359.229C231.044 358.242 231.512 356.836 231.512 355.011V343.652H235.73ZM245.514 346.612C246.13 345.576 246.944 344.774 247.956 344.207C248.992 343.615 250.213 343.319 251.619 343.319V347.685H250.546C248.893 347.685 247.635 348.104 246.772 348.943C245.933 349.782 245.514 351.237 245.514 353.309V364.039H241.296V343.652H245.514V346.612ZM257.642 340.951C256.877 340.951 256.236 340.692 255.718 340.174C255.2 339.656 254.941 339.015 254.941 338.25C254.941 337.485 255.2 336.844 255.718 336.326C256.236 335.808 256.877 335.549 257.642 335.549C258.382 335.549 259.011 335.808 259.529 336.326C260.047 336.844 260.306 337.485 260.306 338.25C260.306 339.015 260.047 339.656 259.529 340.174C259.011 340.692 258.382 340.951 257.642 340.951ZM259.714 343.652V364.039H255.496V343.652H259.714ZM275.538 343.319C277.141 343.319 278.572 343.652 279.83 344.318C281.112 344.984 282.111 345.971 282.827 347.278C283.542 348.585 283.9 350.164 283.9 352.014V364.039H279.719V352.643C279.719 350.818 279.262 349.424 278.35 348.462C277.437 347.475 276.191 346.982 274.613 346.982C273.034 346.982 271.776 347.475 270.839 348.462C269.926 349.424 269.47 350.818 269.47 352.643V364.039H265.252V343.652H269.47V345.983C270.16 345.144 271.036 344.491 272.097 344.022C273.182 343.553 274.329 343.319 275.538 343.319ZM297.494 343.319C299.073 343.319 300.466 343.64 301.675 344.281C302.908 344.898 303.87 345.675 304.561 346.612V343.652H308.816V364.372C308.816 366.247 308.421 367.912 307.632 369.367C306.843 370.847 305.696 372.006 304.191 372.845C302.711 373.684 300.935 374.103 298.863 374.103C296.1 374.103 293.806 373.449 291.981 372.142C290.156 370.859 289.12 369.108 288.873 366.888H293.054C293.375 367.949 294.053 368.8 295.089 369.441C296.15 370.107 297.408 370.44 298.863 370.44C300.565 370.44 301.934 369.922 302.97 368.886C304.031 367.85 304.561 366.345 304.561 364.372V360.968C303.846 361.93 302.871 362.744 301.638 363.41C300.429 364.051 299.048 364.372 297.494 364.372C295.718 364.372 294.09 363.928 292.61 363.04C291.155 362.127 289.995 360.869 289.132 359.266C288.293 357.638 287.874 355.8 287.874 353.753C287.874 351.706 288.293 349.893 289.132 348.314C289.995 346.735 291.155 345.514 292.61 344.651C294.09 343.763 295.718 343.319 297.494 343.319ZM304.561 353.827C304.561 352.421 304.265 351.2 303.673 350.164C303.106 349.128 302.353 348.339 301.416 347.796C300.479 347.253 299.467 346.982 298.382 346.982C297.297 346.982 296.285 347.253 295.348 347.796C294.411 348.314 293.646 349.091 293.054 350.127C292.487 351.138 292.203 352.347 292.203 353.753C292.203 355.159 292.487 356.392 293.054 357.453C293.646 358.514 294.411 359.328 295.348 359.895C296.31 360.438 297.321 360.709 298.382 360.709C299.467 360.709 300.479 360.438 301.416 359.895C302.353 359.352 303.106 358.563 303.673 357.527C304.265 356.466 304.561 355.233 304.561 353.827ZM345.094 364.039H340.876L328.185 344.836V364.039H323.967V338.287H328.185L340.876 357.453V338.287H345.094V364.039ZM349.227 353.753C349.227 351.706 349.647 349.893 350.485 348.314C351.349 346.735 352.508 345.514 353.963 344.651C355.443 343.763 357.071 343.319 358.847 343.319C360.451 343.319 361.844 343.64 363.028 344.281C364.237 344.898 365.199 345.675 365.914 346.612V343.652H370.169V364.039H365.914V361.005C365.199 361.967 364.225 362.769 362.991 363.41C361.758 364.051 360.352 364.372 358.773 364.372C357.022 364.372 355.419 363.928 353.963 363.04C352.508 362.127 351.349 360.869 350.485 359.266C349.647 357.638 349.227 355.8 349.227 353.753ZM365.914 353.827C365.914 352.421 365.618 351.2 365.026 350.164C364.459 349.128 363.707 348.339 362.769 347.796C361.832 347.253 360.821 346.982 359.735 346.982C358.65 346.982 357.639 347.253 356.701 347.796C355.764 348.314 354.999 349.091 354.407 350.127C353.84 351.138 353.556 352.347 353.556 353.753C353.556 355.159 353.84 356.392 354.407 357.453C354.999 358.514 355.764 359.328 356.701 359.895C357.663 360.438 358.675 360.709 359.735 360.709C360.821 360.709 361.832 360.438 362.769 359.895C363.707 359.352 364.459 358.563 365.026 357.527C365.618 356.466 365.914 355.233 365.914 353.827ZM380.631 347.093V358.378C380.631 359.143 380.803 359.698 381.149 360.043C381.519 360.364 382.135 360.524 382.999 360.524H385.589V364.039H382.259C380.359 364.039 378.904 363.595 377.893 362.707C376.881 361.819 376.376 360.376 376.376 358.378V347.093H373.971V343.652H376.376V338.583H380.631V343.652H385.589V347.093H380.631ZM407.939 343.652V364.039H403.721V361.634C403.055 362.473 402.18 363.139 401.094 363.632C400.034 364.101 398.899 364.335 397.69 364.335C396.087 364.335 394.644 364.002 393.361 363.336C392.103 362.67 391.104 361.683 390.364 360.376C389.649 359.069 389.291 357.49 389.291 355.64V343.652H393.472V355.011C393.472 356.836 393.929 358.242 394.841 359.229C395.754 360.191 397 360.672 398.578 360.672C400.157 360.672 401.403 360.191 402.315 359.229C403.253 358.242 403.721 356.836 403.721 355.011V343.652H407.939ZM417.722 346.612C418.339 345.576 419.153 344.774 420.164 344.207C421.2 343.615 422.421 343.319 423.827 343.319V347.685H422.754C421.102 347.685 419.844 348.104 418.98 348.943C418.142 349.782 417.722 351.237 417.722 353.309V364.039H413.504V343.652H417.722V346.612ZM426.299 353.753C426.299 351.706 426.718 349.893 427.557 348.314C428.42 346.735 429.579 345.514 431.035 344.651C432.515 343.763 434.143 343.319 435.919 343.319C437.522 343.319 438.916 343.64 440.1 344.281C441.308 344.898 442.27 345.675 442.986 346.612V343.652H447.241V364.039H442.986V361.005C442.27 361.967 441.296 362.769 440.063 363.41C438.829 364.051 437.423 364.372 435.845 364.372C434.093 364.372 432.49 363.928 431.035 363.04C429.579 362.127 428.42 360.869 427.557 359.266C426.718 357.638 426.299 355.8 426.299 353.753ZM442.986 353.827C442.986 352.421 442.69 351.2 442.098 350.164C441.53 349.128 440.778 348.339 439.841 347.796C438.903 347.253 437.892 346.982 436.807 346.982C435.721 346.982 434.71 347.253 433.773 347.796C432.835 348.314 432.071 349.091 431.479 350.127C430.911 351.138 430.628 352.347 430.628 353.753C430.628 355.159 430.911 356.392 431.479 357.453C432.071 358.514 432.835 359.328 433.773 359.895C434.735 360.438 435.746 360.709 436.807 360.709C437.892 360.709 438.903 360.438 439.841 359.895C440.778 359.352 441.53 358.563 442.098 357.527C442.69 356.466 442.986 355.233 442.986 353.827ZM456.999 336.659V364.039H452.781V336.659H456.999ZM480.547 338.324C483.285 338.324 485.678 338.854 487.725 339.915C489.797 340.951 491.388 342.456 492.498 344.429C493.633 346.378 494.2 348.659 494.2 351.274C494.2 353.889 493.633 356.158 492.498 358.082C491.388 360.006 489.797 361.486 487.725 362.522C485.678 363.533 483.285 364.039 480.547 364.039H472.148V338.324H480.547ZM480.547 360.598C483.556 360.598 485.863 359.784 487.466 358.156C489.069 356.528 489.871 354.234 489.871 351.274C489.871 348.289 489.069 345.958 487.466 344.281C485.863 342.604 483.556 341.765 480.547 341.765H476.366V360.598H480.547ZM500.526 340.951C499.762 340.951 499.12 340.692 498.602 340.174C498.084 339.656 497.825 339.015 497.825 338.25C497.825 337.485 498.084 336.844 498.602 336.326C499.12 335.808 499.762 335.549 500.526 335.549C501.266 335.549 501.895 335.808 502.413 336.326C502.931 336.844 503.19 337.485 503.19 338.25C503.19 339.015 502.931 339.656 502.413 340.174C501.895 340.692 501.266 340.951 500.526 340.951ZM502.598 343.652V364.039H498.38V343.652H502.598ZM506.73 353.753C506.73 351.706 507.15 349.893 507.988 348.314C508.852 346.735 510.011 345.514 511.466 344.651C512.946 343.763 514.574 343.319 516.35 343.319C517.954 343.319 519.347 343.64 520.531 344.281C521.74 344.898 522.702 345.675 523.417 346.612V343.652H527.672V364.039H523.417V361.005C522.702 361.967 521.728 362.769 520.494 363.41C519.261 364.051 517.855 364.372 516.276 364.372C514.525 364.372 512.922 363.928 511.466 363.04C510.011 362.127 508.852 360.869 507.988 359.266C507.15 357.638 506.73 355.8 506.73 353.753ZM523.417 353.827C523.417 352.421 523.121 351.2 522.529 350.164C521.962 349.128 521.21 348.339 520.272 347.796C519.335 347.253 518.324 346.982 517.238 346.982C516.153 346.982 515.142 347.253 514.204 347.796C513.267 348.314 512.502 349.091 511.91 350.127C511.343 351.138 511.059 352.347 511.059 353.753C511.059 355.159 511.343 356.392 511.91 357.453C512.502 358.514 513.267 359.328 514.204 359.895C515.166 360.438 516.178 360.709 517.238 360.709C518.324 360.709 519.335 360.438 520.272 359.895C521.21 359.352 521.962 358.563 522.529 357.527C523.121 356.466 523.417 355.233 523.417 353.827ZM557.892 343.319C559.495 343.319 560.926 343.652 562.184 344.318C563.466 344.984 564.465 345.971 565.181 347.278C565.921 348.585 566.291 350.164 566.291 352.014V364.039H562.11V352.643C562.11 350.818 561.653 349.424 560.741 348.462C559.828 347.475 558.582 346.982 557.004 346.982C555.425 346.982 554.167 347.475 553.23 348.462C552.317 349.424 551.861 350.818 551.861 352.643V364.039H547.68V352.643C547.68 350.818 547.223 349.424 546.311 348.462C545.398 347.475 544.152 346.982 542.574 346.982C540.995 346.982 539.737 347.475 538.8 348.462C537.887 349.424 537.431 350.818 537.431 352.643V364.039H533.213V343.652H537.431V345.983C538.121 345.144 538.997 344.491 540.058 344.022C541.118 343.553 542.253 343.319 543.462 343.319C545.09 343.319 546.545 343.664 547.828 344.355C549.11 345.046 550.097 346.045 550.788 347.352C551.404 346.119 552.366 345.144 553.674 344.429C554.981 343.689 556.387 343.319 557.892 343.319ZM580.501 364.372C578.577 364.372 576.838 363.94 575.284 363.077C573.73 362.189 572.509 360.956 571.621 359.377C570.733 357.774 570.289 355.924 570.289 353.827C570.289 351.755 570.745 349.917 571.658 348.314C572.57 346.711 573.816 345.477 575.395 344.614C576.973 343.751 578.737 343.319 580.686 343.319C582.634 343.319 584.398 343.751 585.977 344.614C587.555 345.477 588.801 346.711 589.714 348.314C590.626 349.917 591.083 351.755 591.083 353.827C591.083 355.899 590.614 357.737 589.677 359.34C588.739 360.943 587.457 362.189 585.829 363.077C584.225 363.94 582.449 364.372 580.501 364.372ZM580.501 360.709C581.586 360.709 582.597 360.45 583.535 359.932C584.497 359.414 585.274 358.637 585.866 357.601C586.458 356.565 586.754 355.307 586.754 353.827C586.754 352.347 586.47 351.101 585.903 350.09C585.335 349.054 584.583 348.277 583.646 347.759C582.708 347.241 581.697 346.982 580.612 346.982C579.526 346.982 578.515 347.241 577.578 347.759C576.665 348.277 575.937 349.054 575.395 350.09C574.852 351.101 574.581 352.347 574.581 353.827C574.581 356.022 575.136 357.724 576.246 358.933C577.38 360.117 578.799 360.709 580.501 360.709ZM605.539 343.319C607.142 343.319 608.573 343.652 609.831 344.318C611.113 344.984 612.112 345.971 612.828 347.278C613.543 348.585 613.901 350.164 613.901 352.014V364.039H609.72V352.643C609.72 350.818 609.263 349.424 608.351 348.462C607.438 347.475 606.192 346.982 604.614 346.982C603.035 346.982 601.777 347.475 600.84 348.462C599.927 349.424 599.471 350.818 599.471 352.643V364.039H595.253V343.652H599.471V345.983C600.161 345.144 601.037 344.491 602.098 344.022C603.183 343.553 604.33 343.319 605.539 343.319ZM617.875 353.753C617.875 351.706 618.294 349.893 619.133 348.314C619.996 346.735 621.156 345.514 622.611 344.651C624.091 343.763 625.731 343.319 627.532 343.319C628.864 343.319 630.171 343.615 631.454 344.207C632.761 344.774 633.797 345.539 634.562 346.501V336.659H638.817V364.039H634.562V360.968C633.871 361.955 632.909 362.769 631.676 363.41C630.467 364.051 629.074 364.372 627.495 364.372C625.719 364.372 624.091 363.928 622.611 363.04C621.156 362.127 619.996 360.869 619.133 359.266C618.294 357.638 617.875 355.8 617.875 353.753ZM634.562 353.827C634.562 352.421 634.266 351.2 633.674 350.164C633.107 349.128 632.354 348.339 631.417 347.796C630.48 347.253 629.468 346.982 628.383 346.982C627.298 346.982 626.286 347.253 625.349 347.796C624.412 348.314 623.647 349.091 623.055 350.127C622.488 351.138 622.204 352.347 622.204 353.753C622.204 355.159 622.488 356.392 623.055 357.453C623.647 358.514 624.412 359.328 625.349 359.895C626.311 360.438 627.322 360.709 628.383 360.709C629.468 360.709 630.48 360.438 631.417 359.895C632.354 359.352 633.107 358.563 633.674 357.527C634.266 356.466 634.562 355.233 634.562 353.827Z" fill="#ffffff"/>
<path d="M553.916 263.049V320.039H544.568V263.049H553.916ZM620.883 274.119C624.436 274.119 627.607 274.857 630.395 276.333C633.238 277.809 635.452 279.996 637.037 282.893C638.677 285.79 639.497 289.289 639.497 293.389V320.039H630.231V294.783C630.231 290.738 629.22 287.649 627.197 285.517C625.174 283.33 622.414 282.237 618.915 282.237C615.416 282.237 612.628 283.33 610.551 285.517C608.528 287.649 607.517 290.738 607.517 294.783V320.039H598.251V294.783C598.251 290.738 597.24 287.649 595.217 285.517C593.194 283.33 590.434 282.237 586.935 282.237C583.436 282.237 580.648 283.33 578.571 285.517C576.548 287.649 575.537 290.738 575.537 294.783V320.039H566.189V274.857H575.537V280.023C577.068 278.164 579.008 276.716 581.359 275.677C583.71 274.638 586.224 274.119 588.903 274.119C592.511 274.119 595.736 274.884 598.579 276.415C601.422 277.946 603.608 280.16 605.139 283.057C606.506 280.324 608.638 278.164 611.535 276.579C614.432 274.939 617.548 274.119 620.883 274.119ZM660.74 281.499C662.326 279.422 664.485 277.672 667.218 276.251C669.952 274.83 673.04 274.119 676.484 274.119C680.42 274.119 684.001 275.103 687.226 277.071C690.506 278.984 693.076 281.69 694.934 285.189C696.793 288.688 697.722 292.706 697.722 297.243C697.722 301.78 696.793 305.853 694.934 309.461C693.076 313.014 690.506 315.802 687.226 317.825C684.001 319.793 680.42 320.777 676.484 320.777C673.04 320.777 669.979 320.094 667.3 318.727C664.622 317.306 662.435 315.556 660.74 313.479V341.523H651.392V274.857H660.74V281.499ZM688.21 297.243C688.21 294.127 687.554 291.448 686.242 289.207C684.985 286.911 683.29 285.189 681.158 284.041C679.081 282.838 676.84 282.237 674.434 282.237C672.084 282.237 669.842 282.838 667.71 284.041C665.633 285.244 663.938 286.993 662.626 289.289C661.369 291.585 660.74 294.291 660.74 297.407C660.74 300.523 661.369 303.256 662.626 305.607C663.938 307.903 665.633 309.652 667.71 310.855C669.842 312.058 672.084 312.659 674.434 312.659C676.84 312.659 679.081 312.058 681.158 310.855C683.29 309.598 684.985 307.794 686.242 305.443C687.554 303.092 688.21 300.359 688.21 297.243ZM748.376 296.341C748.376 298.036 748.267 299.566 748.048 300.933H713.526C713.8 304.541 715.139 307.438 717.544 309.625C719.95 311.812 722.902 312.905 726.4 312.905C731.43 312.905 734.983 310.8 737.06 306.591H747.146C745.78 310.746 743.292 314.162 739.684 316.841C736.131 319.465 731.703 320.777 726.4 320.777C722.082 320.777 718.2 319.82 714.756 317.907C711.367 315.939 708.688 313.206 706.72 309.707C704.807 306.154 703.85 302.054 703.85 297.407C703.85 292.76 704.78 288.688 706.638 285.189C708.552 281.636 711.203 278.902 714.592 276.989C718.036 275.076 721.972 274.119 726.4 274.119C730.664 274.119 734.464 275.048 737.798 276.907C741.133 278.766 743.73 281.39 745.588 284.779C747.447 288.114 748.376 291.968 748.376 296.341ZM738.618 293.389C738.564 289.945 737.334 287.184 734.928 285.107C732.523 283.03 729.544 281.991 725.99 281.991C722.765 281.991 720.004 283.03 717.708 285.107C715.412 287.13 714.046 289.89 713.608 293.389H738.618ZM776.928 297.161L791.524 320.039H780.946L771.188 304.705L762.004 320.039H752.246L766.842 297.817L752.246 274.857H762.824L772.582 290.191L781.766 274.857H791.524L776.928 297.161Z" fill="#ffffff"/>
<rect x="651.391" y="338.633" width="9.35547" height="25.4062" fill="#ffffff"/>
<path fill-rule="evenodd" clip-rule="evenodd" d="M153.131 159.093C158.745 151.01 162.035 141.192 162.035 130.605C162.035 129.3 161.985 128.007 161.887 126.727C161.827 125.937 161.748 125.149 161.649 124.364C160.711 116.829 158.096 109.814 154.19 103.705C151.037 98.7467 146.993 94.3595 142.313 90.8117C133.909 84.4079 123.416 80.6055 112.035 80.6055C100.976 80.6055 90.7547 84.1962 82.4747 90.2754C81.0958 91.2831 79.7691 92.3623 78.5028 93.5093C76.5111 95.3061 74.6693 97.267 72.9959 99.3625C66.1374 107.921 62.0352 118.784 62.0352 130.605C62.0352 130.611 62.0352 130.616 62.0352 130.622C62.0349 131.287 62.0482 131.953 62.0749 132.618C62.4468 142.011 65.4097 150.737 70.2686 158.103C73.3201 162.742 77.1505 166.869 81.5596 170.248C81.5721 170.257 81.5847 170.267 81.5972 170.276C89.829 176.602 100.086 180.423 111.228 180.599C107.843 180.545 104.465 180.145 101.162 179.396C94.0783 177.833 87.3546 174.684 81.5972 170.276C77.1789 166.881 73.3439 162.765 70.2686 158.103C68.8655 155.97 67.6271 153.729 66.5728 151.403C63.8645 145.514 62.3348 139.091 62.0749 132.618C62.0487 131.956 62.0354 131.29 62.0352 130.622C62.0352 130.393 62.0369 130.164 62.0402 129.936C62.1188 124.296 63.1587 118.67 65.1037 113.373C66.9563 108.318 69.6368 103.569 72.9959 99.3625C75.7423 95.9352 78.9307 92.8774 82.4747 90.2754C90.0693 84.7249 99.2465 81.3415 108.64 80.7278C119.888 79.9227 131.354 83.1177 140.598 89.5691C141.178 89.9709 141.75 90.3852 142.313 90.8117C146.987 94.3737 151.015 98.7405 154.19 103.705C154.416 104.062 154.638 104.421 154.855 104.783C158.446 110.743 160.785 117.459 161.649 124.364C161.747 125.146 161.826 125.934 161.887 126.727C161.929 127.286 161.962 127.846 161.985 128.407C162.346 136.375 160.753 144.415 157.39 151.646C156.189 154.246 154.761 156.74 153.131 159.093ZM139.345 172.495C144.76 168.958 149.446 164.4 153.131 159.093C150.592 162.761 147.562 166.088 144.137 168.949C142.614 170.229 141.012 171.412 139.345 172.495ZM112.064 180.605C116.914 180.602 121.764 179.891 126.407 178.49C130.972 177.112 135.346 175.093 139.345 172.495C131.502 177.619 122.131 180.6 112.064 180.605ZM96.5808 85.9816C96.5714 85.9729 96.563 85.965 96.5558 85.9582C101.247 84.3307 106.197 83.439 111.164 83.347C111.165 84.1143 111.17 84.8818 111.175 85.6493C111.19 87.795 111.204 89.9408 111.129 92.083C106.334 90.0876 101.538 88.0989 96.7331 86.1275C96.6985 86.0918 96.6285 86.0263 96.5808 85.9816ZM112.907 84.4964C112.909 84.1132 112.911 83.7301 112.913 83.347C117.882 83.439 122.827 84.34 127.523 85.9569C127.493 85.9815 127.449 86.0208 127.407 86.0576C127.377 86.0845 127.348 86.11 127.328 86.1275C122.525 88.1096 117.727 90.0956 112.93 92.0884C112.878 89.5588 112.893 87.0273 112.907 84.4964ZM91.256 93.058C92.0472 91.1489 92.8384 89.2399 93.6269 87.3298C93.7069 87.0392 93.9989 86.782 94.3121 86.9192C96.8134 87.933 99.3051 88.9697 101.796 90.0062C104.713 91.2198 107.629 92.4331 110.56 93.6092C108.978 95.2558 107.357 96.8667 105.735 98.478C104.751 99.4559 103.767 100.434 102.791 101.42C102.523 101.677 102.264 101.943 102.005 102.209C101.594 102.631 101.184 103.052 100.739 103.437C100.507 103.479 100.273 103.478 100.04 103.477C99.9776 103.477 99.915 103.476 99.8526 103.477C98.0318 103.469 96.2112 103.471 94.3908 103.474C91.9355 103.477 89.4804 103.48 87.0254 103.458C87.3253 102.462 87.7396 101.503 88.154 100.545C88.4063 99.9619 88.6585 99.3785 88.885 98.7863C89.6736 96.8762 90.4648 94.9671 91.256 93.058ZM123.537 89.4838C125.566 88.6406 127.595 87.7974 129.628 86.9632C129.954 86.762 130.364 87.0085 130.458 87.3511C131.65 90.2463 132.847 93.138 134.045 96.0302C134.835 97.937 135.625 99.8439 136.413 101.752C136.483 101.944 136.565 102.132 136.646 102.319C136.802 102.679 136.958 103.038 137.033 103.424C134.166 103.446 131.3 103.442 128.433 103.439C126.846 103.437 125.26 103.435 123.674 103.437C123.35 103.494 123.11 103.278 122.914 103.058C121.624 101.748 120.319 100.451 119.015 99.1534C117.167 97.3158 115.32 95.4784 113.513 93.6039C116.864 92.257 120.201 90.8704 123.537 89.4838ZM79.316 96.6403C79.3386 96.5843 79.3853 96.475 79.4093 96.4204C82.9647 93.0454 87.0267 90.1609 91.4833 88.1056C90.2647 91.1688 88.9958 94.2132 87.7269 97.2578C86.9705 99.0726 86.2141 100.888 85.4683 102.707C85.2803 102.583 85.111 102.436 84.955 102.276C83.0647 100.41 81.177 98.5344 79.316 96.6403ZM133.137 89.5156C132.937 89.0514 132.737 88.5872 132.594 88.1016C136.97 90.1249 140.952 92.9574 144.481 96.2338C144.503 96.2588 144.533 96.2867 144.566 96.3166C144.696 96.4351 144.86 96.5857 144.661 96.7176C143.859 97.4996 143.07 98.297 142.281 99.0945C141.071 100.317 139.861 101.54 138.603 102.708C137.425 99.8843 136.256 97.0563 135.087 94.2283C134.549 92.9257 134.01 91.6231 133.471 90.3209C133.367 90.0497 133.252 89.7826 133.137 89.5156ZM103.269 103.414C103.379 103.209 103.529 103.029 103.7 102.87C104.917 101.669 106.124 100.458 107.331 99.2479C108.893 97.6805 110.455 96.1137 112.037 94.5689C113.609 96.101 115.159 97.6561 116.708 99.211C117.928 100.435 119.147 101.658 120.377 102.87C120.546 103.029 120.697 103.209 120.809 103.414C114.963 103.456 109.116 103.456 103.269 103.414ZM76.3188 107.296C74.043 108.245 71.7673 109.193 69.4789 110.107C71.6292 105.59 74.5221 101.406 78.0215 97.824C79.1123 98.8799 80.1826 99.9559 81.2532 101.032C82.0759 101.859 82.8988 102.686 83.7312 103.505C83.9125 103.672 84.0725 103.861 84.1925 104.075C81.5546 105.115 78.9366 106.206 76.3188 107.296ZM140.803 104.383C140.494 104.262 140.184 104.14 139.907 103.954C141.926 101.881 143.972 99.8394 146.038 97.82C148.762 100.547 151.053 103.693 152.985 107.02C153.133 107.298 153.289 107.573 153.446 107.849C153.84 108.54 154.234 109.232 154.489 109.986C153.31 109.578 152.16 109.09 151.011 108.601C150.244 108.276 149.478 107.951 148.703 107.649C146.176 106.6 143.647 105.552 141.115 104.509C141.012 104.465 140.907 104.424 140.803 104.383ZM86.5204 106.315C86.5119 105.903 86.5035 105.49 86.6014 105.086C90.7701 105.119 94.94 105.142 99.1047 105.074C98.9887 105.232 98.8714 105.392 98.7341 105.535C97.4306 106.839 96.1262 108.143 94.8218 109.446C92.2134 112.053 89.6048 114.66 87.0027 117.273C86.868 117.409 86.7161 117.523 86.5494 117.617C86.5128 115.373 86.5178 113.128 86.5228 110.883C86.5258 109.537 86.5288 108.19 86.5228 106.844C86.5276 106.668 86.524 106.492 86.5204 106.315ZM93.8498 112.784C96.416 110.217 98.9826 107.65 101.552 105.086C105.289 105.073 109.025 105.075 112.762 105.077C115.858 105.078 118.954 105.079 122.052 105.072C122.098 105.075 122.146 105.074 122.195 105.074C122.394 105.072 122.603 105.07 122.737 105.243C124.861 107.357 126.979 109.477 129.096 111.597C131.891 114.395 134.686 117.193 137.494 119.976C137.511 123.202 137.508 126.427 137.505 129.653C137.504 131.69 137.502 133.727 137.505 135.765C137.49 136.449 137.498 137.136 137.506 137.823C137.519 138.939 137.532 140.054 137.448 141.159C132.476 146.132 127.501 151.107 122.526 156.077C118.497 156.09 114.467 156.088 110.436 156.086C107.576 156.085 104.716 156.084 101.856 156.088C101.612 156.128 101.402 156.013 101.247 155.832C98.58 153.162 95.9109 150.494 93.2421 147.826C91.0591 145.644 88.8762 143.462 86.6947 141.279C86.5245 141.134 86.5253 140.914 86.526 140.704C86.5263 140.633 86.5265 140.563 86.5201 140.498C86.5253 136.761 86.5247 133.024 86.5241 129.288C86.5236 126.352 86.5231 123.416 86.5254 120.481C86.4655 120.123 86.7183 119.889 86.9618 119.665C87.0378 119.595 87.1129 119.525 87.1773 119.453C89.4024 117.232 91.6259 115.008 93.8498 112.784ZM128.852 108.988C127.546 107.689 126.24 106.389 124.959 105.064C129.136 105.082 133.31 105.091 137.484 105.06C137.517 108.493 137.508 111.926 137.499 115.359C137.498 116.105 137.496 116.85 137.494 117.595C136.2 116.352 134.933 115.078 133.667 113.803C132.877 113.008 132.086 112.212 131.289 111.424C130.481 110.608 129.666 109.798 128.852 108.988ZM68.562 113.347C68.4288 113.03 68.2893 112.698 68.4218 112.357C70.479 111.512 72.5333 110.658 74.5875 109.804C78.0297 108.373 81.472 106.942 84.9284 105.551C84.9293 106.318 84.9304 107.086 84.9315 107.853C84.937 111.688 84.9426 115.524 84.9204 119.36C83.0786 121.179 81.249 123.012 79.4195 124.845C78.0946 126.172 76.7698 127.5 75.4406 128.821C75.4116 128.845 75.3718 128.877 75.3289 128.912C75.2517 128.974 75.1645 129.045 75.1113 129.087C73.863 126.16 72.6498 123.217 71.4364 120.274C70.5053 118.015 69.5741 115.756 68.6271 113.505C68.6064 113.452 68.5843 113.4 68.562 113.347ZM139.142 112.954C139.139 110.475 139.137 107.996 139.151 105.518C142.175 106.719 145.18 107.969 148.185 109.22C150.21 110.063 152.235 110.906 154.265 111.733C154.406 111.796 154.551 111.854 154.697 111.911C155.02 112.039 155.345 112.168 155.634 112.361C155.781 112.619 155.675 112.892 155.576 113.145C155.563 113.179 155.55 113.212 155.538 113.245C154.558 115.577 153.593 117.916 152.627 120.255C151.414 123.193 150.201 126.132 148.96 129.057C147.098 127.247 145.264 125.406 143.43 123.565C142.054 122.184 140.678 120.802 139.29 119.433C139.131 119.302 139.137 119.097 139.143 118.899C139.145 118.822 139.147 118.745 139.139 118.675C139.145 116.768 139.143 114.861 139.142 112.954ZM71.5272 129.76C69.2763 129.767 67.0249 129.773 64.7744 129.742C64.8877 124.728 65.7449 119.704 67.4646 114.988C68.3006 117.047 69.1558 119.098 70.011 121.15C71.2043 124.013 72.3975 126.875 73.5383 129.756C72.868 129.757 72.1976 129.759 71.5272 129.76ZM151.791 126.594C153.304 122.948 154.818 119.299 156.318 115.645C156.356 115.592 156.379 115.504 156.402 115.414C156.449 115.226 156.499 115.028 156.703 115.108C158.29 119.821 159.22 124.765 159.303 129.745C157.489 129.772 155.673 129.768 153.858 129.764C152.75 129.762 151.643 129.759 150.536 129.764C150.739 129.071 151.025 128.409 151.312 127.746C151.476 127.364 151.641 126.982 151.791 126.594ZM80.756 135.34C79.1905 133.781 77.6252 132.222 76.0818 130.643L76.0885 130.538C77.267 129.372 78.4369 128.198 79.6068 127.023C81.3616 125.261 83.1161 123.5 84.899 121.767C84.8777 127.647 84.875 133.524 84.9017 139.402C84.6964 139.257 84.5031 139.1 84.3298 138.918C83.1448 137.72 81.9504 136.53 80.756 135.34ZM139.151 139.419C139.134 133.523 139.139 127.623 139.15 121.723C139.893 122.358 140.579 123.059 141.265 123.761C141.694 124.201 142.124 124.64 142.568 125.064C143.264 125.766 143.965 126.464 144.667 127.163C145.783 128.274 146.9 129.386 147.995 130.515L147.987 130.622C146.84 131.759 145.7 132.903 144.56 134.048C142.767 135.849 140.973 137.649 139.151 139.419ZM65.5209 139.03C65.0903 136.516 64.793 133.972 64.7784 131.421C66.561 131.39 68.3451 131.395 70.1298 131.399C71.268 131.401 72.4065 131.404 73.5449 131.398C73.468 131.732 73.3344 132.047 73.2005 132.362C73.1418 132.5 73.0831 132.639 73.029 132.779C72.1515 134.871 71.2858 136.969 70.4201 139.066C69.4405 141.44 68.461 143.813 67.4646 146.179C66.5501 143.885 66.0035 141.45 65.5209 139.03ZM153.656 139.025C152.597 136.492 151.538 133.96 150.543 131.405C151.33 131.404 152.118 131.402 152.906 131.4C155.038 131.395 157.171 131.389 159.303 131.417C159.221 136.06 158.435 140.683 157.016 145.102C156.956 145.193 156.924 145.349 156.891 145.509C156.83 145.799 156.767 146.1 156.532 146.04C155.607 143.69 154.632 141.357 153.656 139.025ZM71.1479 141.63C72.461 138.45 73.7739 135.27 75.114 132.103C76.9272 133.863 78.7106 135.654 80.494 137.444C81.86 138.816 83.2261 140.187 84.6058 141.546C84.6199 141.559 84.6344 141.573 84.649 141.587C84.8022 141.732 84.9701 141.892 84.9324 142.129C84.9377 146.633 84.935 151.141 84.9324 155.647C81.5888 154.321 78.2658 152.938 74.9424 151.555C72.8476 150.683 70.7527 149.811 68.6524 148.954C68.2271 148.847 68.3471 148.341 68.4871 148.05C69.3797 145.912 70.2638 143.771 71.1479 141.63ZM144.304 136.668C145.473 135.497 146.642 134.326 147.815 133.16C147.928 133.051 148.038 132.937 148.147 132.823C148.403 132.556 148.66 132.289 148.964 132.078C150.264 135.133 151.531 138.203 152.797 141.273C153.709 143.482 154.62 145.69 155.543 147.893C155.685 148.178 155.77 148.495 155.666 148.81C153.286 149.782 150.912 150.767 148.538 151.753C145.412 153.051 142.287 154.349 139.147 155.615C139.147 154.957 139.146 154.3 139.145 153.642C139.14 149.695 139.134 145.747 139.153 141.8C140.88 140.099 142.592 138.384 144.304 136.668ZM86.5224 149.954C86.5172 147.824 86.5119 145.695 86.5494 143.568C86.7001 143.669 86.8441 143.786 86.9734 143.914C88.7277 145.689 90.4955 147.451 92.2633 149.213C94.5564 151.499 96.8497 153.786 99.114 156.098C94.9334 156.077 90.7541 156.073 86.5721 156.1C86.5064 155.598 86.5141 155.094 86.5219 154.59C86.5261 154.317 86.5303 154.045 86.5228 153.773C86.5288 152.5 86.5256 151.227 86.5224 149.954ZM125.987 154.983L134.079 146.892C134.521 146.469 134.949 146.031 135.377 145.594C136.064 144.889 136.752 144.186 137.496 143.549C137.494 144.879 137.498 146.21 137.503 147.541C137.513 150.388 137.524 153.236 137.466 156.08C135.768 156.038 134.067 156.044 132.368 156.051C131.351 156.055 130.335 156.058 129.32 156.052C128.797 156.059 128.274 156.055 127.751 156.051C126.823 156.043 125.896 156.036 124.97 156.089C125.179 155.772 125.449 155.509 125.72 155.246C125.81 155.159 125.899 155.072 125.987 154.983ZM78.0202 163.368C74.4954 159.815 71.6239 155.601 69.4643 151.087C72.2925 152.242 75.1153 153.412 77.9381 154.582C79.4822 155.222 81.0263 155.862 82.5714 156.5C82.7248 156.565 82.8801 156.627 83.0356 156.688C83.4208 156.841 83.8068 156.994 84.1658 157.209C82.2023 159.238 80.187 161.229 78.1801 163.21L78.0202 163.368ZM140.495 157.804C140.267 157.586 140.039 157.368 139.885 157.093C142.553 156.036 145.204 154.932 147.854 153.829C150.1 152.894 152.345 151.96 154.601 151.053C153.724 153.047 152.586 154.923 151.403 156.753C149.818 159.104 148.074 161.365 146.062 163.37C144.256 161.607 142.48 159.817 140.714 158.018C140.642 157.945 140.569 157.875 140.495 157.804ZM87.3457 158.658C87.2128 158.36 87.0797 158.062 87.0387 157.734C88.0293 157.732 89.02 157.729 90.0107 157.727C93.5881 157.716 97.1661 157.706 100.742 157.749C101.501 158.418 102.213 159.143 102.925 159.869C103.363 160.316 103.801 160.762 104.25 161.196C105.06 162.019 105.88 162.832 106.7 163.645C108.001 164.935 109.303 166.226 110.56 167.555C107.591 168.755 104.634 169.983 101.677 171.212C99.2613 172.216 96.8457 173.22 94.4241 174.208C94.1455 174.377 93.7682 174.288 93.6776 173.954C92.7194 171.635 91.76 169.317 90.8007 166.999C89.6833 164.299 88.566 161.599 87.4506 158.898C87.4168 158.817 87.3813 158.738 87.3457 158.658ZM103.7 158.291C103.529 158.133 103.376 157.954 103.269 157.747C109.116 157.706 114.963 157.706 120.808 157.749C120.697 157.951 120.546 158.133 120.377 158.291C119.157 159.495 117.947 160.709 116.738 161.922C115.178 163.486 113.618 165.05 112.037 166.594C110.461 165.055 108.906 163.495 107.351 161.934C106.137 160.717 104.924 159.499 103.7 158.291ZM116.076 164.947C116.633 164.396 117.19 163.846 117.736 163.286C118.452 162.581 119.161 161.867 119.869 161.154C121.016 159.999 122.162 158.845 123.341 157.727C126.881 157.666 130.428 157.68 133.973 157.693C135.001 157.697 136.029 157.701 137.057 157.703C136.979 158.109 136.814 158.487 136.649 158.865C136.57 159.046 136.491 159.228 136.421 159.412C134.411 164.259 132.403 169.104 130.398 173.952C130.308 174.288 129.929 174.377 129.65 174.208C127.214 173.216 124.785 172.206 122.356 171.196C119.412 169.973 116.469 168.749 113.513 167.558C114.34 166.663 115.208 165.805 116.076 164.947ZM79.5323 164.919C79.3934 164.793 79.1787 164.598 79.4093 164.452C80.2183 163.663 81.0136 162.859 81.8088 162.056C83.0132 160.839 84.2173 159.622 85.4683 158.458C86.0525 159.87 86.6399 161.282 87.2273 162.693C88.6664 166.15 90.1053 169.608 91.4979 173.083C91.4153 173.063 91.2553 173.021 91.1727 172.999C86.9334 170.921 83.0127 168.188 79.5706 164.954C79.5589 164.944 79.546 164.932 79.5323 164.919ZM136.764 162.907C137.381 161.426 137.999 159.944 138.611 158.462C139.833 159.571 140.996 160.75 142.159 161.929C142.929 162.71 143.699 163.49 144.486 164.251C144.51 164.279 144.543 164.311 144.58 164.345C144.712 164.47 144.878 164.627 144.681 164.764C141.264 168.088 137.288 170.811 133.032 172.948C132.92 172.981 132.696 173.052 132.584 173.089C133.939 169.682 135.352 166.294 136.764 162.907ZM112.902 175.344C112.888 173.256 112.874 171.167 112.954 169.081C113.407 169.27 113.86 169.459 114.314 169.648C118.708 171.48 123.103 173.313 127.517 175.097C127.445 175.267 127.275 175.323 127.111 175.376C127.055 175.395 126.999 175.413 126.948 175.435C122.431 176.942 117.678 177.816 112.913 177.839C112.913 177.007 112.908 176.175 112.902 175.344ZM102.721 172.571C104.075 172.008 105.429 171.445 106.786 170.89C107.312 170.685 107.832 170.46 108.352 170.236C109.277 169.836 110.203 169.436 111.164 169.147C111.189 172.043 111.187 174.944 111.165 177.839C106.401 177.805 101.65 176.936 97.1317 175.435C97.0813 175.414 97.0267 175.396 96.9716 175.379C96.8049 175.325 96.6336 175.27 96.5624 175.099C98.6217 174.274 100.671 173.422 102.721 172.571Z" fill="black"/>
</svg>